
<svg version="1.1" id="Layer_1" xmlns="http://www.w3.org/2000/svg" xmlns:xlink="http://www.w3.org/1999/xlink" x="0px" y="0px"
	 width="100%" viewBox="0 0 546 287" enable-background="new 0 0 546 287" xml:space="preserve">
<path fill="#000000" opacity="1.000000" stroke="none" 
	d="
M370.000000,288.000000 
	C246.666702,288.000000 123.833405,288.000000 1.000082,288.000000 
	C1.000055,192.333405 1.000055,96.666794 1.000027,1.000147 
	C182.999878,1.000098 364.999756,1.000098 546.999756,1.000049 
	C546.999817,96.666512 546.999817,192.333023 546.999878,287.999756 
	C488.166656,288.000000 429.333344,288.000000 370.000000,288.000000 
M112.521996,87.998215 
	C109.077179,87.998215 105.632355,87.998215 102.152260,87.998215 
	C102.021301,90.950096 101.914253,93.362991 101.790489,96.152817 
	C93.375992,96.152817 85.298790,96.152817 77.264099,96.152817 
	C77.264099,129.616791 77.264099,162.678925 77.264099,196.001816 
	C84.496613,196.001816 91.466858,195.959900 98.435623,196.042664 
	C99.611595,196.056625 100.842728,196.468231 101.937225,196.949112 
	C103.149818,197.481857 104.231361,198.906052 105.375893,198.912628 
	C126.532661,199.034210 147.690308,199.007248 168.847748,198.983582 
	C169.808701,198.982513 171.577591,198.817413 171.609436,198.560242 
	C172.117950,194.452881 175.269852,196.066269 177.286407,196.064774 
	C274.743958,195.992691 372.201538,196.001770 469.659119,196.001770 
	C471.408112,196.001770 473.157104,196.001770 474.669769,196.001770 
	C474.669769,162.250351 474.669769,129.187469 474.669769,95.781433 
	C373.622131,95.781433 272.906189,95.781433 172.149719,95.781433 
	C172.024582,93.024506 171.915085,90.611862 171.796463,87.998215 
	C152.124390,87.998215 132.820908,87.998215 112.521996,87.998215 
z"/>
<path fill="#FEFEFF" opacity="1.000000" stroke="none" 
	d="
M113.019714,87.998215 
	C132.820908,87.998215 152.124390,87.998215 171.796463,87.998215 
	C171.915085,90.611862 172.024582,93.024506 172.149719,95.781433 
	C272.906189,95.781433 373.622131,95.781433 474.669769,95.781433 
	C474.669769,129.187469 474.669769,162.250351 474.669769,196.001770 
	C473.157104,196.001770 471.408112,196.001770 469.659119,196.001770 
	C372.201538,196.001770 274.743958,195.992691 177.286407,196.064774 
	C175.269852,196.066269 172.117950,194.452881 171.609436,198.560242 
	C171.577591,198.817413 169.808701,198.982513 168.847748,198.983582 
	C147.690308,199.007248 126.532661,199.034210 105.375893,198.912628 
	C104.231361,198.906052 103.149818,197.481857 101.937225,196.949112 
	C100.842728,196.468231 99.611595,196.056625 98.435623,196.042664 
	C91.466858,195.959900 84.496613,196.001816 77.264099,196.001816 
	C77.264099,162.678925 77.264099,129.616791 77.264099,96.152817 
	C85.298790,96.152817 93.375992,96.152817 101.790489,96.152817 
	C101.914253,93.362991 102.021301,90.950096 102.152260,87.998215 
	C105.632355,87.998215 109.077179,87.998215 113.019714,87.998215 
M134.226746,118.041000 
	C132.404037,119.064514 130.581314,120.088020 128.015991,121.328979 
	C125.746490,122.348015 123.548477,123.592873 121.192482,124.338715 
	C116.394020,125.857765 116.299095,128.498352 118.886879,132.962753 
	C118.850952,133.267715 118.815018,133.572693 118.169464,133.461548 
	C117.239067,131.872406 116.308678,130.283279 115.272125,128.512817 
	C114.584923,130.641891 114.221840,132.789047 113.243782,134.604980 
	C110.327934,140.018753 110.310883,143.752975 114.643150,148.030029 
	C117.505402,150.855820 121.219231,152.819031 125.006905,155.731445 
	C128.238068,157.432251 131.469223,159.133057 135.086380,161.321564 
	C137.309113,162.599167 139.531830,163.876785 142.126007,165.724380 
	C145.367294,168.371048 148.608582,171.017700 151.987320,174.301178 
	C154.039368,178.198639 156.091415,182.096100 158.651276,186.958023 
	C158.876221,182.837357 159.050705,179.641251 159.223450,176.477066 
	C159.700638,176.384476 160.085617,176.179901 160.298630,176.294632 
	C160.788239,176.558334 161.194107,176.977509 161.915588,177.561554 
	C163.968567,169.298767 162.491547,162.352112 155.821198,156.123657 
	C153.099213,154.317520 150.377213,152.511383 147.175369,150.145660 
	C144.720062,148.965881 142.264771,147.786102 139.209488,146.147598 
	C135.473465,144.428543 131.737427,142.709488 127.572342,140.506088 
	C126.680893,139.693649 125.789444,138.881226 125.498535,137.674835 
	C127.688606,136.502060 129.878677,135.329285 132.808777,134.067535 
	C135.534683,132.681824 138.260590,131.296097 141.650101,129.761597 
	C144.564743,127.566124 147.479370,125.370659 151.009201,122.933990 
	C155.290329,119.256119 156.994110,114.655411 155.659866,108.489288 
	C155.027115,108.322998 154.394379,108.156700 153.785004,107.243629 
	C153.621536,105.787529 153.458069,104.331429 153.294601,102.875328 
	C153.838120,103.690163 154.381638,104.504997 154.925156,105.319832 
	C151.246292,107.735962 147.567413,110.152092 143.246307,112.899780 
	C140.460327,114.574570 137.674362,116.249359 134.226746,118.041000 
M311.483185,129.740021 
	C311.483185,136.852707 311.483185,143.965393 311.483185,151.507492 
	C316.809631,151.507492 321.601013,151.651901 326.379211,151.462830 
	C330.359314,151.305328 334.172058,150.230698 335.641663,145.973297 
	C337.105621,141.732193 334.865753,138.734802 332.594299,137.322540 
	C333.444214,134.011948 335.320496,130.864929 334.487762,128.822433 
	C333.584351,126.606651 330.308929,124.360786 327.801270,124.004494 
	C322.631744,123.269989 317.284851,123.783447 311.484070,123.783447 
	C311.484070,125.557610 311.484070,127.182068 311.483185,129.740021 
M200.616760,132.592422 
	C200.616760,129.658112 200.616760,126.723808 200.616760,123.677231 
	C197.882477,123.677231 195.804764,123.677231 193.208801,123.677231 
	C193.208801,127.495987 193.208801,131.060364 193.208801,134.612503 
	C189.139343,134.612503 185.603149,134.612503 181.738922,134.612503 
	C181.738922,130.792923 181.738922,127.351967 181.738922,123.661285 
	C179.324371,123.661285 177.244812,123.661285 174.895935,123.661285 
	C174.895935,132.908554 174.895935,141.967438 174.895935,151.234955 
	C177.272705,151.234955 179.466095,151.234955 182.082886,151.234955 
	C182.082886,147.609573 182.082886,144.357452 182.082886,141.012207 
	C185.924896,141.012207 189.336899,141.012207 193.382843,141.012207 
	C193.382843,144.613953 193.382843,147.981369 193.382843,151.270996 
	C196.113403,151.270996 198.184830,151.270996 200.617142,151.270996 
	C200.617142,145.148254 200.617142,139.358704 200.616760,132.592422 
M395.171814,140.362747 
	C396.621185,143.217041 397.374298,147.244370 399.698914,148.624161 
	C402.508728,150.291962 406.649567,149.717361 410.173492,150.108688 
	C409.226532,154.680099 407.005920,155.297852 398.496155,152.435516 
	C397.870300,153.813843 397.230988,155.221771 396.318237,157.231918 
	C399.139526,158.056503 401.435822,159.014954 403.821991,159.371292 
	C411.035248,160.448517 416.935150,157.070435 417.401367,151.013458 
	C417.931396,144.127640 417.523834,137.169647 417.523834,129.570755 
	C414.342773,130.102356 411.505402,131.376556 409.064392,130.841736 
	C399.981567,128.851730 396.633057,130.728195 395.171814,140.362747 
M390.165985,121.900940 
	C388.378448,121.900940 386.590912,121.900940 384.557770,121.900940 
	C384.395020,125.367439 384.252106,128.411148 384.095093,131.755173 
	C379.433899,129.116287 375.124481,128.648132 371.254028,132.098022 
	C367.445068,135.493088 367.237335,140.039536 368.411102,144.576782 
	C369.457336,148.621231 372.283600,151.461548 376.519318,151.650024 
	C381.284454,151.862061 386.085327,151.270203 391.136017,151.014618 
	C391.204224,149.978256 391.354828,148.846085 391.340973,147.715927 
	C391.237122,139.235916 391.100800,130.756302 390.165985,121.900940 
M284.529755,147.080322 
	C284.621429,148.500198 284.713104,149.920074 284.802826,151.309753 
	C287.231689,151.309753 289.161896,151.309753 291.604553,151.309753 
	C291.604553,147.926605 291.569214,144.803589 291.615021,141.681763 
	C291.656586,138.849319 292.150116,136.081512 295.710205,135.965118 
	C299.536194,135.840042 299.648010,138.775284 299.667633,141.552689 
	C299.690582,144.806839 299.673004,148.061279 299.673004,151.161850 
	C302.451630,151.161850 304.509155,151.161850 306.691620,151.161850 
	C306.691620,146.245544 306.940247,141.740280 306.629242,137.273987 
	C306.232971,131.583038 301.999390,128.612381 296.547150,129.928345 
	C295.002045,130.301285 293.567688,131.133331 291.831451,131.859894 
	C291.657806,128.486038 291.492737,125.278320 291.326630,122.051285 
	C288.866211,122.051285 286.912598,122.051285 284.529114,122.051285 
	C284.529114,130.230423 284.529114,138.199432 284.529755,147.080322 
M217.566528,142.699600 
	C220.466431,142.699600 223.366333,142.699600 226.236435,142.699600 
	C226.296783,134.833084 223.711288,130.931900 218.335434,129.957001 
	C212.226151,128.849121 207.016296,131.346252 205.103867,136.299026 
	C203.078491,141.544235 204.736481,147.272827 209.077515,150.028625 
	C214.060135,153.191772 220.676071,152.214569 226.011200,146.260239 
	C222.734787,146.169678 220.696350,145.859573 218.733078,146.118774 
	C215.818298,146.503632 213.154175,146.853195 211.875793,142.699402 
	C213.695282,142.699402 215.167099,142.699402 217.566528,142.699600 
M426.088104,131.240646 
	C420.318420,136.139877 419.325714,143.328400 423.739685,148.246246 
	C428.117462,153.123764 436.266937,152.989441 441.463257,147.855621 
	C440.047180,145.591568 438.718628,144.256607 435.595428,145.883148 
	C433.012421,147.228378 430.128601,146.873032 428.496582,142.585510 
	C433.633423,142.585510 438.295441,142.585510 442.898865,142.585510 
	C443.210266,131.796051 437.013489,127.572090 426.088104,131.240646 
M249.179962,147.249832 
	C249.177383,144.085022 249.179901,140.920197 249.171051,137.755402 
	C249.157578,132.931229 246.575760,130.050156 241.941055,129.932236 
	C238.380966,129.841644 234.787338,130.879211 231.220932,131.487259 
	C230.817932,131.555954 230.494827,132.093216 229.935272,132.590363 
	C230.618210,133.841751 231.282120,135.058243 231.898697,136.188019 
	C239.262573,134.206299 239.864410,134.312546 242.362869,138.529175 
	C240.166107,138.529175 238.223572,138.049057 236.687042,138.634506 
	C233.943268,139.679947 230.793777,140.852829 229.099518,142.991074 
	C228.158096,144.179184 229.073578,148.604370 230.467026,149.481339 
	C232.817566,150.960663 236.205002,150.835815 239.173172,151.271164 
	C240.557510,151.474197 241.997482,151.570587 243.383301,151.429977 
	C245.743057,151.190567 249.603363,153.399887 249.179962,147.249832 
M270.265076,150.208420 
	C273.647003,152.618408 277.048706,152.215103 282.054749,149.733734 
	C279.461945,147.668915 277.578033,146.168625 275.162415,144.244888 
	C275.162415,142.116455 275.162415,139.021255 275.162415,135.884048 
	C277.787262,135.219727 282.138794,136.450500 280.063934,131.092010 
	C278.443024,130.961899 276.854614,130.834396 275.244843,130.705185 
	C274.995270,128.644638 274.784607,126.905594 274.593933,125.331314 
	C272.206085,125.331314 270.155060,125.331314 269.598907,125.331314 
	C267.862061,127.874985 266.581848,129.390610 265.737671,131.119186 
	C265.220642,132.177948 264.975159,134.529739 265.283722,134.656586 
	C269.660065,136.455811 267.402008,140.211685 268.004059,143.092590 
	C268.465454,145.300415 269.109406,147.470093 270.265076,150.208420 
M261.225006,144.401657 
	C261.225006,136.991379 261.225006,129.581116 261.225006,122.217979 
	C258.597443,122.217979 256.563660,122.217979 254.539032,122.217979 
	C254.539032,132.127533 254.539032,141.653534 254.539032,151.197159 
	C256.904541,151.197159 258.942902,151.197159 261.225708,151.197159 
	C261.225708,148.996613 261.225708,147.182404 261.225006,144.401657 
M343.539307,151.573761 
	C348.212006,152.270309 347.053070,148.833069 347.044556,146.442017 
	C347.013031,137.595856 346.967560,137.596024 354.103302,135.028000 
	C354.010010,133.367752 353.913727,131.654160 353.777618,129.232452 
	C351.258331,130.364655 349.369110,131.213684 347.479919,132.062729 
	C347.566101,131.691254 347.652252,131.319794 347.738403,130.948318 
	C345.330597,130.546829 342.922821,130.145340 340.078552,129.671066 
	C340.078552,136.741638 339.973724,142.865570 340.194244,148.977753 
	C340.226471,149.870941 341.809418,150.708160 343.539307,151.573761 
M364.030243,134.641632 
	C363.959198,133.198654 363.888123,131.755676 363.813782,130.245560 
	C361.478333,130.245560 359.446686,130.245560 357.335297,130.245560 
	C357.335297,137.406647 357.335297,144.251831 357.335297,151.247787 
	C359.658569,151.247787 361.705383,151.247787 364.029999,151.247787 
	C364.029999,145.818542 364.029999,140.715652 364.030243,134.641632 
M361.353668,120.147934 
	C359.902008,121.322990 358.208344,122.324013 357.156647,123.786659 
	C356.867615,124.188629 358.319092,126.699814 359.292084,126.938599 
	C360.565216,127.251053 363.394684,126.269791 363.395233,125.842247 
	C363.397583,124.031639 362.599823,122.219978 361.353668,120.147934 
z"/>
<path fill="#0E52B0" opacity="1.000000" stroke="none" 
	d="
M311.483643,129.273270 
	C311.484070,127.182068 311.484070,125.557610 311.484070,123.783447 
	C317.284851,123.783447 322.631744,123.269989 327.801270,124.004494 
	C330.308929,124.360786 333.584351,126.606651 334.487762,128.822433 
	C335.320496,130.864929 333.444214,134.011948 332.594299,137.322540 
	C334.865753,138.734802 337.105621,141.732193 335.641663,145.973297 
	C334.172058,150.230698 330.359314,151.305328 326.379211,151.462830 
	C321.601013,151.651901 316.809631,151.507492 311.483185,151.507492 
	C311.483185,143.965393 311.483185,136.852707 311.483643,129.273270 
M321.463165,145.998886 
	C322.452698,145.993790 323.638794,146.335922 324.390320,145.910446 
	C325.897766,145.056976 327.167755,143.784134 328.535767,142.684402 
	C327.171234,141.757996 325.918243,140.440628 324.412018,140.010849 
	C322.778320,139.544724 320.908783,139.905182 317.692535,139.905182 
	C318.924713,142.534943 319.733795,144.261673 321.463165,145.998886 
M327.033295,130.091522 
	C324.412750,129.605789 321.792206,129.120056 318.653778,128.538315 
	C318.788574,131.186798 318.875092,132.886841 318.985291,135.052063 
	C322.438660,133.811264 327.372223,137.307785 327.033295,130.091522 
z"/>
<path fill="#1757B3" opacity="1.000000" stroke="none" 
	d="
M200.616943,133.080780 
	C200.617142,139.358704 200.617142,145.148254 200.617142,151.270996 
	C198.184830,151.270996 196.113403,151.270996 193.382843,151.270996 
	C193.382843,147.981369 193.382843,144.613953 193.382843,141.012207 
	C189.336899,141.012207 185.924896,141.012207 182.082886,141.012207 
	C182.082886,144.357452 182.082886,147.609573 182.082886,151.234955 
	C179.466095,151.234955 177.272705,151.234955 174.895935,151.234955 
	C174.895935,141.967438 174.895935,132.908554 174.895935,123.661285 
	C177.244812,123.661285 179.324371,123.661285 181.738922,123.661285 
	C181.738922,127.351967 181.738922,130.792923 181.738922,134.612503 
	C185.603149,134.612503 189.139343,134.612503 193.208801,134.612503 
	C193.208801,131.060364 193.208801,127.495987 193.208801,123.677231 
	C195.804764,123.677231 197.882477,123.677231 200.616760,123.677231 
	C200.616760,126.723808 200.616760,129.658112 200.616943,133.080780 
z"/>
<path fill="#0E52B0" opacity="1.000000" stroke="none" 
	d="
M395.171143,139.959656 
	C396.633057,130.728195 399.981567,128.851730 409.064392,130.841736 
	C411.505402,131.376556 414.342773,130.102356 417.523834,129.570755 
	C417.523834,137.169647 417.931396,144.127640 417.401367,151.013458 
	C416.935150,157.070435 411.035248,160.448517 403.821991,159.371292 
	C401.435822,159.014954 399.139526,158.056503 396.318237,157.231918 
	C397.230988,155.221771 397.870300,153.813843 398.496155,152.435516 
	C407.005920,155.297852 409.226532,154.680099 410.173492,150.108688 
	C406.649567,149.717361 402.508728,150.291962 399.698914,148.624161 
	C397.374298,147.244370 396.621185,143.217041 395.171143,139.959656 
M407.203735,145.116074 
	C408.175537,144.298004 409.953644,143.490234 409.964264,142.659882 
	C409.993225,140.392212 409.702148,137.882187 408.647461,135.955566 
	C408.222290,135.178894 404.392853,135.033127 403.996552,135.707397 
	C402.866791,137.629776 402.179901,140.170990 402.388672,142.367004 
	C402.489807,143.431015 404.984924,144.267426 407.203735,145.116074 
z"/>
<path fill="#0D51B0" opacity="1.000000" stroke="none" 
	d="
M390.570312,122.088760 
	C391.100800,130.756302 391.237122,139.235916 391.340973,147.715927 
	C391.354828,148.846085 391.204224,149.978256 391.136017,151.014618 
	C386.085327,151.270203 381.284454,151.862061 376.519318,151.650024 
	C372.283600,151.461548 369.457336,148.621231 368.411102,144.576782 
	C367.237335,140.039536 367.445068,135.493088 371.254028,132.098022 
	C375.124481,128.648132 379.433899,129.116287 384.095093,131.755173 
	C384.252106,128.411148 384.395020,125.367439 384.557770,121.900940 
	C386.590912,121.900940 388.378448,121.900940 390.570312,122.088760 
M378.039673,135.501755 
	C374.192749,137.763000 373.839203,141.163177 376.120026,144.362671 
	C376.983368,145.573730 381.216370,146.196869 381.536591,145.662827 
	C382.834839,143.497635 383.847626,140.725143 383.644745,138.286575 
	C383.548462,137.129120 380.481537,136.218842 378.039673,135.501755 
z"/>
<path fill="#1254B1" opacity="1.000000" stroke="none" 
	d="
M284.529419,146.624390 
	C284.529114,138.199432 284.529114,130.230423 284.529114,122.051285 
	C286.912598,122.051285 288.866211,122.051285 291.326630,122.051285 
	C291.492737,125.278320 291.657806,128.486038 291.831451,131.859894 
	C293.567688,131.133331 295.002045,130.301285 296.547150,129.928345 
	C301.999390,128.612381 306.232971,131.583038 306.629242,137.273987 
	C306.940247,141.740280 306.691620,146.245544 306.691620,151.161850 
	C304.509155,151.161850 302.451630,151.161850 299.673004,151.161850 
	C299.673004,148.061279 299.690582,144.806839 299.667633,141.552689 
	C299.648010,138.775284 299.536194,135.840042 295.710205,135.965118 
	C292.150116,136.081512 291.656586,138.849319 291.615021,141.681763 
	C291.569214,144.803589 291.604553,147.926605 291.604553,151.309753 
	C289.161896,151.309753 287.231689,151.309753 284.802826,151.309753 
	C284.713104,149.920074 284.621429,148.500198 284.529419,146.624390 
z"/>
<path fill="#1053B1" opacity="1.000000" stroke="none" 
	d="
M217.102722,142.699493 
	C215.167099,142.699402 213.695282,142.699402 211.875793,142.699402 
	C213.154175,146.853195 215.818298,146.503632 218.733078,146.118774 
	C220.696350,145.859573 222.734787,146.169678 226.011200,146.260239 
	C220.676071,152.214569 214.060135,153.191772 209.077515,150.028625 
	C204.736481,147.272827 203.078491,141.544235 205.103867,136.299026 
	C207.016296,131.346252 212.226151,128.849121 218.335434,129.957001 
	C223.711288,130.931900 226.296783,134.833084 226.236435,142.699600 
	C223.366333,142.699600 220.466431,142.699600 217.102722,142.699493 
M211.604477,138.565933 
	C214.251602,138.696564 216.898712,138.827209 219.545837,138.957855 
	C219.742569,138.439224 219.939301,137.920609 220.136032,137.401993 
	C218.708023,136.458817 217.212280,134.683014 215.869888,134.792221 
	C214.339508,134.916733 212.945847,136.721664 211.604477,138.565933 
z"/>
<path fill="#0F52B0" opacity="1.000000" stroke="none" 
	d="
M426.451324,131.068970 
	C437.013489,127.572090 443.210266,131.796051 442.898865,142.585510 
	C438.295441,142.585510 433.633423,142.585510 428.496582,142.585510 
	C430.128601,146.873032 433.012421,147.228378 435.595428,145.883148 
	C438.718628,144.256607 440.047180,145.591568 441.463257,147.855621 
	C436.266937,152.989441 428.117462,153.123764 423.739685,148.246246 
	C419.325714,143.328400 420.318420,136.139877 426.451324,131.068970 
M428.423492,138.609177 
	C430.965240,138.609177 433.506958,138.609177 437.773834,138.609177 
	C435.507172,136.691971 434.169342,134.739792 433.177246,134.901993 
	C431.426147,135.188324 429.885803,136.763504 428.423492,138.609177 
z"/>
<path fill="#0D51B0" opacity="1.000000" stroke="none" 
	d="
M249.179520,147.708008 
	C249.603363,153.399887 245.743057,151.190567 243.383301,151.429977 
	C241.997482,151.570587 240.557510,151.474197 239.173172,151.271164 
	C236.205002,150.835815 232.817566,150.960663 230.467026,149.481339 
	C229.073578,148.604370 228.158096,144.179184 229.099518,142.991074 
	C230.793777,140.852829 233.943268,139.679947 236.687042,138.634506 
	C238.223572,138.049057 240.166107,138.529175 242.362869,138.529175 
	C239.864410,134.312546 239.262573,134.206299 231.898697,136.188019 
	C231.282120,135.058243 230.618210,133.841751 229.935272,132.590363 
	C230.494827,132.093216 230.817932,131.555954 231.220932,131.487259 
	C234.787338,130.879211 238.380966,129.841644 241.941055,129.932236 
	C246.575760,130.050156 249.157578,132.931229 249.171051,137.755402 
	C249.179901,140.920197 249.177383,144.085022 249.179520,147.708008 
M235.157608,143.769196 
	C236.135330,144.876205 237.385712,147.050110 238.037918,146.883438 
	C239.762054,146.442810 241.227036,144.988205 242.795166,143.937195 
	C242.500580,143.310364 242.205994,142.683548 241.911407,142.056717 
	C239.819992,142.407471 237.728577,142.758240 235.157608,143.769196 
z"/>
<path fill="#1561B6" opacity="1.000000" stroke="none" 
	d="
M124.551804,155.168427 
	C121.219231,152.819031 117.505402,150.855820 114.643150,148.030029 
	C110.310883,143.752975 110.327934,140.018753 113.243782,134.604980 
	C114.221840,132.789047 114.584923,130.641891 115.272125,128.512817 
	C116.308678,130.283279 117.239067,131.872406 118.492371,133.701447 
	C118.815285,133.941360 118.884911,133.966629 118.986404,134.217102 
	C119.379356,134.661743 119.670822,134.855896 119.980988,135.025024 
	C119.999695,135.000000 119.960876,135.049576 120.047729,135.322632 
	C120.765106,136.001953 121.395622,136.408203 122.235657,136.982117 
	C122.622147,137.123566 122.799110,137.097351 122.985924,137.038635 
	C122.995781,137.006119 122.935768,137.037979 123.025452,137.389313 
	C123.740883,137.853561 124.366646,137.966492 124.972290,138.046082 
	C124.952179,138.012741 124.897995,138.068787 124.897995,138.068787 
	C125.789444,138.881226 126.680893,139.693649 127.781448,141.133316 
	C127.673508,143.762405 127.356461,145.764252 126.834351,147.766174 
	C126.629288,147.766220 126.219345,147.754135 126.016846,147.493347 
	C125.132843,147.187759 124.451340,147.142944 123.769836,147.098145 
	C124.347916,147.637939 124.926003,148.177750 125.727829,148.873489 
	C126.299286,149.032425 126.646996,149.035416 126.997818,149.015106 
	C127.000931,148.991791 126.955261,149.003098 127.007935,149.338501 
	C128.043381,150.261703 129.026138,150.849487 129.619171,151.616409 
	C127.670235,152.919830 126.111015,154.044128 124.551804,155.168427 
z"/>
<path fill="#0A4FAF" opacity="1.000000" stroke="none" 
	d="
M269.968628,149.932587 
	C269.109406,147.470093 268.465454,145.300415 268.004059,143.092590 
	C267.402008,140.211685 269.660065,136.455811 265.283722,134.656586 
	C264.975159,134.529739 265.220642,132.177948 265.737671,131.119186 
	C266.581848,129.390610 267.862061,127.874985 269.598907,125.331314 
	C270.155060,125.331314 272.206085,125.331314 274.593933,125.331314 
	C274.784607,126.905594 274.995270,128.644638 275.244843,130.705185 
	C276.854614,130.834396 278.443024,130.961899 280.063934,131.092010 
	C282.138794,136.450500 277.787262,135.219727 275.162415,135.884048 
	C275.162415,139.021255 275.162415,142.116455 275.162415,144.244888 
	C277.578033,146.168625 279.461945,147.668915 282.054749,149.733734 
	C277.048706,152.215103 273.647003,152.618408 269.968628,149.932587 
z"/>
<path fill="#1053B1" opacity="1.000000" stroke="none" 
	d="
M261.225342,144.884933 
	C261.225708,147.182404 261.225708,148.996613 261.225708,151.197159 
	C258.942902,151.197159 256.904541,151.197159 254.539032,151.197159 
	C254.539032,141.653534 254.539032,132.127533 254.539032,122.217979 
	C256.563660,122.217979 258.597443,122.217979 261.225006,122.217979 
	C261.225006,129.581116 261.225006,136.991379 261.225342,144.884933 
z"/>
<path fill="#0D51B0" opacity="1.000000" stroke="none" 
	d="
M343.107086,151.572510 
	C341.809418,150.708160 340.226471,149.870941 340.194244,148.977753 
	C339.973724,142.865570 340.078552,136.741638 340.078552,129.671066 
	C342.922821,130.145340 345.330597,130.546829 347.738403,130.948318 
	C347.652252,131.319794 347.566101,131.691254 347.479919,132.062729 
	C349.369110,131.213684 351.258331,130.364655 353.777618,129.232452 
	C353.913727,131.654160 354.010010,133.367752 354.103302,135.028000 
	C346.967560,137.596024 347.013031,137.595856 347.044556,146.442017 
	C347.053070,148.833069 348.212006,152.270309 343.107086,151.572510 
z"/>
<path fill="#30ADD2" opacity="1.000000" stroke="none" 
	d="
M156.152054,156.717728 
	C162.491547,162.352112 163.968567,169.298767 161.915588,177.561554 
	C161.194107,176.977509 160.788239,176.558334 160.298630,176.294632 
	C160.085617,176.179901 159.700638,176.384476 159.223450,176.477066 
	C159.050705,179.641251 158.876221,182.837357 158.651276,186.958023 
	C156.091415,182.096100 154.039368,178.198639 151.959198,173.550537 
	C152.359116,167.182251 153.837738,161.840317 156.152054,156.717728 
z"/>
<path fill="#249BCB" opacity="1.000000" stroke="none" 
	d="
M155.986633,156.420685 
	C153.837738,161.840317 152.359116,167.182251 151.890472,173.232147 
	C148.608582,171.017700 145.367294,168.371048 142.257523,165.224655 
	C143.469757,163.056824 144.550461,161.388718 145.923660,159.819214 
	C147.334808,160.495209 148.453461,161.072601 149.787933,161.777237 
	C150.244186,161.828384 150.484619,161.752289 150.725052,161.676178 
	C150.568985,161.367340 150.412918,161.058502 150.065170,160.477386 
	C147.853027,158.835205 145.832550,157.465302 144.154861,155.922852 
	C145.550171,154.068634 146.602692,152.386932 147.655212,150.705231 
	C150.377213,152.511383 153.099213,154.317520 155.986633,156.420685 
z"/>
<path fill="#0D51B0" opacity="1.000000" stroke="none" 
	d="
M364.030121,135.127197 
	C364.029999,140.715652 364.029999,145.818542 364.029999,151.247787 
	C361.705383,151.247787 359.658569,151.247787 357.335297,151.247787 
	C357.335297,144.251831 357.335297,137.406647 357.335297,130.245560 
	C359.446686,130.245560 361.478333,130.245560 363.813782,130.245560 
	C363.888123,131.755676 363.959198,133.198654 364.030121,135.127197 
z"/>
<path fill="#1574BC" opacity="1.000000" stroke="none" 
	d="
M127.039406,147.766113 
	C127.356461,145.764252 127.673508,143.762405 127.995987,141.375488 
	C131.737427,142.709488 135.473465,144.428543 139.149353,146.551544 
	C138.043442,148.644241 136.997650,150.332977 135.585144,152.000519 
	C132.464035,150.987228 129.709656,149.995163 126.955261,149.003098 
	C126.955261,149.003098 127.000931,148.991791 127.227554,148.704697 
	C127.315918,148.200439 127.177658,147.983276 127.039406,147.766113 
z"/>
<path fill="#4291DF" opacity="1.000000" stroke="none" 
	d="
M118.982849,132.046570 
	C116.299095,128.498352 116.394020,125.857765 121.192482,124.338715 
	C123.548477,123.592873 125.746490,122.348015 128.444214,121.724258 
	C129.510818,123.549438 130.149216,124.979347 130.481781,126.616608 
	C126.444901,128.564835 122.713875,130.305695 118.982849,132.046570 
z"/>
<path fill="#5FD4E5" opacity="1.000000" stroke="none" 
	d="
M143.888550,112.568222 
	C147.567413,110.152092 151.246292,107.735962 154.925156,105.319832 
	C154.381638,104.504997 153.838120,103.690163 153.294601,102.875328 
	C153.458069,104.331429 153.621536,105.787529 153.550934,107.851677 
	C153.207764,109.310440 153.098663,110.161163 152.994797,111.005798 
	C153.000015,110.999718 153.008240,110.985962 152.694229,111.080673 
	C151.916061,112.120872 151.451904,113.066360 150.993958,114.005775 
	C151.000168,113.999702 151.011963,113.986870 150.733246,114.019585 
	C150.298340,114.372284 150.142151,114.692268 149.992981,115.006073 
	C150.000000,114.999893 150.012222,114.985764 149.737183,115.027306 
	C149.303345,115.383301 149.144547,115.697754 148.992859,116.006104 
	C148.999954,116.000000 149.012283,115.985954 148.734497,116.025650 
	C148.300461,116.380524 148.144226,116.695717 147.993362,117.005981 
	C147.998718,117.001053 148.007431,116.989143 147.682953,116.975105 
	C146.589233,117.352188 145.819992,117.743309 144.998199,117.733246 
	C144.593277,115.744118 144.240921,114.156166 143.888550,112.568222 
z"/>
<path fill="#DEF1F9" opacity="1.000000" stroke="none" 
	d="
M145.050735,118.134422 
	C145.819992,117.743309 146.589233,117.352188 147.790283,117.256676 
	C148.117050,117.939323 148.012009,118.326370 147.602905,118.881416 
	C144.461807,120.979660 141.624741,122.909904 138.448532,124.908356 
	C135.716583,126.299149 133.323776,127.621742 130.570801,128.977997 
	C126.879028,130.649628 123.547394,132.287613 119.883385,133.946777 
	C119.328972,133.967499 119.106941,133.967056 118.884911,133.966629 
	C118.884911,133.966629 118.815285,133.941360 118.797180,133.909515 
	C118.815018,133.572693 118.850952,133.267715 118.934860,132.504669 
	C122.713875,130.305695 126.444901,128.564835 130.781647,126.535683 
	C133.766342,124.883110 136.145325,123.518814 138.851837,122.110138 
	C141.136505,120.755310 143.093613,119.444862 145.050735,118.134422 
z"/>
<path fill="#4291DF" opacity="1.000000" stroke="none" 
	d="
M120.215759,133.925613 
	C123.547394,132.287613 126.879028,130.649628 130.864563,129.236450 
	C131.701904,131.026337 131.885330,132.591431 132.068756,134.156509 
	C129.878677,135.329285 127.688606,136.502060 125.198265,137.871811 
	C124.897995,138.068787 124.952179,138.012741 124.927994,137.679352 
	C124.247803,137.243317 123.591782,137.140640 122.935768,137.037979 
	C122.935768,137.037979 122.995781,137.006119 123.081787,136.698761 
	C122.802505,136.095093 122.437210,135.798798 121.843231,135.253693 
	C121.063324,135.019791 120.512100,135.034683 119.960876,135.049561 
	C119.960876,135.049576 119.999695,135.000000 120.257141,134.791870 
	C120.414978,134.364349 120.315369,134.144989 120.215759,133.925613 
z"/>
<path fill="#1D87C3" opacity="1.000000" stroke="none" 
	d="
M145.631165,159.720612 
	C144.550461,161.388718 143.469757,163.056824 142.071808,164.939667 
	C139.531830,163.876785 137.309113,162.599167 134.985687,160.516647 
	C135.055557,157.869629 135.226135,156.027542 135.758163,154.268219 
	C139.290146,156.140869 142.460663,157.930740 145.631165,159.720612 
z"/>
<path fill="#1D87C3" opacity="1.000000" stroke="none" 
	d="
M135.951859,152.021729 
	C136.997650,150.332977 138.043442,148.644241 139.449341,146.780914 
	C142.264771,147.786102 144.720062,148.965881 147.415283,150.425446 
	C146.602692,152.386932 145.550171,154.068634 143.818100,155.849701 
	C140.742996,154.639954 138.347427,153.330841 135.951859,152.021729 
z"/>
<path fill="#5FD4E5" opacity="1.000000" stroke="none" 
	d="
M147.906952,118.713409 
	C148.012009,118.326370 148.117050,117.939323 148.114761,117.270714 
	C148.007431,116.989143 147.998718,117.001053 148.298874,117.012131 
	C148.736786,116.677452 148.874527,116.331703 149.012283,115.985954 
	C149.012283,115.985954 148.999954,116.000000 149.302216,116.021339 
	C149.740387,115.690369 149.876297,115.338066 150.012207,114.985764 
	C150.012222,114.985764 150.000000,114.999893 150.298187,115.018372 
	C150.734894,114.686852 150.873428,114.336861 151.011963,113.986870 
	C151.011963,113.986870 151.000168,113.999702 151.361053,114.030273 
	C152.150696,113.035889 152.579468,112.010925 153.008240,110.985962 
	C153.008240,110.985962 153.000015,110.999718 153.312164,111.016235 
	C154.406342,110.381195 155.188354,109.729645 155.970367,109.078094 
	C156.994110,114.655411 155.290329,119.256119 150.368973,122.868637 
	C149.121475,121.440002 148.514206,120.076706 147.906952,118.713409 
z"/>
<path fill="#53C0E3" opacity="1.000000" stroke="none" 
	d="
M147.602905,118.881416 
	C148.514206,120.076706 149.121475,121.440002 150.061371,122.989243 
	C147.479370,125.370659 144.564743,127.566124 141.316849,129.474762 
	C140.251617,127.738670 139.519638,126.289398 138.787659,124.840134 
	C141.624741,122.909904 144.461807,120.979660 147.602905,118.881416 
z"/>
<path fill="#4BAAE1" opacity="1.000000" stroke="none" 
	d="
M138.448532,124.908348 
	C139.519638,126.289398 140.251617,127.738670 140.985046,129.549164 
	C138.260590,131.296097 135.534683,132.681824 132.438766,134.112030 
	C131.885330,132.591431 131.701904,131.026337 131.224701,129.202789 
	C133.323776,127.621742 135.716583,126.299149 138.448532,124.908348 
z"/>
<path fill="#53C0E3" opacity="1.000000" stroke="none" 
	d="
M144.998199,117.733246 
	C143.093613,119.444862 141.136505,120.755310 138.491898,121.981079 
	C136.832397,120.572319 135.860397,119.248230 134.888382,117.924149 
	C137.674362,116.249359 140.460327,114.574570 143.567429,112.733994 
	C144.240921,114.156166 144.593277,115.744118 144.998199,117.733246 
z"/>
<path fill="#1574BC" opacity="1.000000" stroke="none" 
	d="
M135.396698,154.185440 
	C135.226135,156.027542 135.055557,157.869629 134.792679,160.272797 
	C131.469223,159.133057 128.238068,157.432251 124.779350,155.449936 
	C126.111015,154.044128 127.670235,152.919830 129.900757,151.724091 
	C132.180283,152.496902 133.788498,153.341171 135.396698,154.185440 
z"/>
<path fill="#4BAAE1" opacity="1.000000" stroke="none" 
	d="
M134.557556,117.982574 
	C135.860397,119.248230 136.832397,120.572319 138.164368,122.025467 
	C136.145325,123.518814 133.766342,124.883110 131.087494,126.328331 
	C130.149216,124.979347 129.510818,123.549438 128.815521,121.615532 
	C130.581314,120.088020 132.404037,119.064514 134.557556,117.982574 
z"/>
<path fill="#0F52B0" opacity="1.000000" stroke="none" 
	d="
M361.724060,120.278320 
	C362.599823,122.219978 363.397583,124.031639 363.395233,125.842247 
	C363.394684,126.269791 360.565216,127.251053 359.292084,126.938599 
	C358.319092,126.699814 356.867615,124.188629 357.156647,123.786659 
	C358.208344,122.324013 359.902008,121.322990 361.724060,120.278320 
z"/>
<path fill="#DEF1F9" opacity="1.000000" stroke="none" 
	d="
M155.815125,108.783691 
	C155.188354,109.729645 154.406342,110.381195 153.306946,111.022308 
	C153.098663,110.161163 153.207764,109.310440 153.539246,108.225067 
	C154.394379,108.156700 155.027115,108.322998 155.815125,108.783691 
z"/>
<path fill="#F6F9FC" opacity="1.000000" stroke="none" 
	d="
M321.002991,145.993652 
	C319.733795,144.261673 318.924713,142.534943 317.692535,139.905182 
	C320.908783,139.905182 322.778320,139.544724 324.412018,140.010849 
	C325.918243,140.440628 327.171234,141.757996 328.535767,142.684387 
	C327.167755,143.784134 325.897766,145.056976 324.390320,145.910446 
	C323.638794,146.335922 322.452698,145.993790 321.002991,145.993652 
z"/>
<path fill="#EAF0F8" opacity="1.000000" stroke="none" 
	d="
M327.265045,130.418884 
	C327.372223,137.307785 322.438660,133.811264 318.985291,135.052063 
	C318.875092,132.886841 318.788574,131.186798 318.653778,128.538315 
	C321.792206,129.120056 324.412750,129.605789 327.265045,130.418884 
z"/>
<path fill="#F6F9FC" opacity="1.000000" stroke="none" 
	d="
M406.799957,145.161469 
	C404.984924,144.267426 402.489807,143.431015 402.388672,142.367004 
	C402.179901,140.170990 402.866791,137.629776 403.996552,135.707397 
	C404.392853,135.033127 408.222290,135.178894 408.647461,135.955566 
	C409.702148,137.882187 409.993225,140.392212 409.964264,142.659882 
	C409.953644,143.490234 408.175537,144.298004 406.799957,145.161469 
z"/>
<path fill="#F6F9FC" opacity="1.000000" stroke="none" 
	d="
M378.400024,135.349167 
	C380.481537,136.218842 383.548462,137.129120 383.644745,138.286575 
	C383.847626,140.725143 382.834839,143.497635 381.536591,145.662827 
	C381.216370,146.196869 376.983368,145.573730 376.120026,144.362671 
	C373.839203,141.163177 374.192749,137.763000 378.400024,135.349167 
z"/>
<path fill="#DAEAF5" opacity="1.000000" stroke="none" 
	d="
M211.548615,138.181091 
	C212.945847,136.721664 214.339508,134.916733 215.869888,134.792221 
	C217.212280,134.683014 218.708023,136.458817 220.136032,137.401993 
	C219.939301,137.920609 219.742569,138.439224 219.545837,138.957855 
	C216.898712,138.827209 214.251602,138.696564 211.548615,138.181091 
z"/>
<path fill="#EAF0F8" opacity="1.000000" stroke="none" 
	d="
M428.340393,138.204163 
	C429.885803,136.763504 431.426147,135.188324 433.177246,134.901993 
	C434.169342,134.739792 435.507172,136.691971 437.773834,138.609177 
	C433.506958,138.609177 430.965240,138.609177 428.340393,138.204163 
z"/>
<path fill="#EAF0F8" opacity="1.000000" stroke="none" 
	d="
M235.397385,143.439087 
	C237.728577,142.758240 239.819992,142.407471 241.911407,142.056717 
	C242.205994,142.683548 242.500580,143.310364 242.795166,143.937195 
	C241.227036,144.988205 239.762054,146.442810 238.037918,146.883438 
	C237.385712,147.050110 236.135330,144.876205 235.397385,143.439087 
z"/>
<path fill="#DAEAF5" opacity="1.000000" stroke="none" 
	d="
M135.758179,154.268219 
	C133.788498,153.341171 132.180283,152.496902 130.290466,151.544952 
	C129.026138,150.849487 128.043381,150.261703 127.007935,149.338501 
	C129.709656,149.995163 132.464035,150.987228 135.585144,152.000519 
	C138.347427,153.330841 140.742996,154.639954 143.475327,156.022217 
	C145.832550,157.465302 147.853027,158.835205 149.875473,160.688400 
	C149.775665,161.331116 149.673889,161.490570 149.572098,161.649994 
	C148.453461,161.072601 147.334808,160.495209 145.923676,159.819214 
	C142.460663,157.930740 139.290146,156.140869 135.758179,154.268219 
z"/>
<path fill="#DAEAF5" opacity="1.000000" stroke="none" 
	d="
M125.504082,148.717545 
	C124.926003,148.177750 124.347916,147.637939 123.769836,147.098145 
	C124.451340,147.142944 125.132843,147.187759 125.824356,147.724060 
	C125.724266,148.382904 125.614174,148.550232 125.504082,148.717545 
z"/>
<path fill="#DEF1F9" opacity="1.000000" stroke="none" 
	d="
M120.047729,135.322632 
	C120.512100,135.034683 121.063324,135.019791 121.843697,135.583313 
	C122.057281,136.379288 122.041718,136.596863 122.026146,136.814453 
	C121.395622,136.408203 120.765106,136.001953 120.047729,135.322632 
z"/>
<path fill="#FEFEFF" opacity="1.000000" stroke="none" 
	d="
M123.025452,137.389313 
	C123.591782,137.140640 124.247803,137.243317 124.948105,137.712692 
	C124.366646,137.966492 123.740883,137.853561 123.025452,137.389313 
z"/>
<path fill="#FEFEFF" opacity="1.000000" stroke="none" 
	d="
M122.235657,136.982117 
	C122.041718,136.596863 122.057281,136.379288 122.072380,135.832123 
	C122.437210,135.798798 122.802505,136.095093 123.071930,136.731262 
	C122.799110,137.097351 122.622147,137.123566 122.235657,136.982117 
z"/>
<path fill="#DAEAF5" opacity="1.000000" stroke="none" 
	d="
M126.834351,147.766174 
	C127.177658,147.983276 127.315918,148.200439 127.224442,148.727997 
	C126.646996,149.035416 126.299286,149.032425 125.727829,148.873489 
	C125.614174,148.550232 125.724266,148.382904 126.026855,147.984863 
	C126.219345,147.754135 126.629288,147.766220 126.834351,147.766174 
z"/>
<path fill="#FEFEFF" opacity="1.000000" stroke="none" 
	d="
M119.883385,133.946777 
	C120.315369,134.144989 120.414978,134.364349 120.238434,134.816895 
	C119.670822,134.855896 119.379356,134.661743 118.986404,134.217102 
	C119.106941,133.967056 119.328972,133.967499 119.883385,133.946777 
z"/>
<path fill="#DAEAF5" opacity="1.000000" stroke="none" 
	d="
M150.067154,160.960663 
	C150.412918,161.058502 150.568985,161.367340 150.725052,161.676178 
	C150.484619,161.752289 150.244186,161.828384 149.787933,161.777252 
	C149.673889,161.490570 149.775665,161.331116 150.067154,160.960663 
z"/>
<path fill="#DEF1F9" opacity="1.000000" stroke="none" 
	d="
M152.694229,111.080673 
	C152.579468,112.010925 152.150696,113.035889 151.354828,114.036346 
	C151.451904,113.066360 151.916061,112.120872 152.694229,111.080673 
z"/>
<path fill="#DEF1F9" opacity="1.000000" stroke="none" 
	d="
M150.733246,114.019585 
	C150.873428,114.336861 150.734894,114.686852 150.291153,115.024551 
	C150.142151,114.692268 150.298340,114.372284 150.733246,114.019585 
z"/>
<path fill="#DEF1F9" opacity="1.000000" stroke="none" 
	d="
M149.737183,115.027306 
	C149.876297,115.338066 149.740387,115.690369 149.295105,116.027451 
	C149.144547,115.697754 149.303345,115.383301 149.737183,115.027306 
z"/>
<path fill="#DEF1F9" opacity="1.000000" stroke="none" 
	d="
M148.734497,116.025650 
	C148.874527,116.331703 148.736786,116.677452 148.293518,117.017059 
	C148.144226,116.695717 148.300461,116.380524 148.734497,116.025650 
z"/>
</svg>